<?xml version="1.0" encoding="iso-8859-1"?>
<!-- Generator: Adobe Illustrator 19.0.0, SVG Export Plug-In . SVG Version: 6.00 Build 0)  -->
<svg version="1.1" id="Layer_1" xmlns="http://www.w3.org/2000/svg" xmlns:xlink="http://www.w3.org/1999/xlink" x="0px" y="0px"
	 viewBox="0 0 512 512" style="enable-background:new 0 0 512 512;" xml:space="preserve">
<g>
	<g>
		<path d="M256,21.333c-141.167,0-256,114.844-256,256v85.333c0,35.208,8.792,70.156,25.438,101.063
			c1.875,3.448,5.479,5.604,9.396,5.604h52.465c4.418,12.389,16.147,21.333,30.035,21.333c17.646,0,32-14.354,32-32v-192
			c0-17.646-14.354-32-32-32c-13.888,0-25.617,8.944-30.035,21.333H34.833c-3.917,0-7.521,2.156-9.396,5.604
			c-1.406,2.611-2.423,5.402-3.716,8.069c1.88-57.831,24.72-110.324,61.238-150.294l22.186,22.194c2,2,4.708,3.125,7.542,3.125
			s5.542-1.125,7.542-3.125C156.5,105.302,204.708,85.333,256,85.333s99.5,19.969,135.771,56.24c2,2,4.708,3.125,7.542,3.125
			c2.833,0,5.542-1.125,7.542-3.125l22.186-22.194c36.518,39.97,59.358,92.464,61.238,150.294c-1.293-2.667-2.31-5.458-3.716-8.069
			c-1.875-3.448-5.479-5.604-9.396-5.604h-52.465c-4.418-12.389-16.147-21.333-30.035-21.333c-17.646,0-32,14.354-32,32v192
			c0,17.646,14.354,32,32,32c13.888,0,25.617-8.944,30.035-21.333h52.465c3.917,0,7.521-2.156,9.396-5.604
			C503.208,432.823,512,397.875,512,362.667v-85.333C512,136.177,397.167,21.333,256,21.333z M106.667,266.667
			c0-5.885,4.792-10.667,10.667-10.667S128,260.781,128,266.667v192c0,5.885-4.792,10.667-10.667,10.667
			s-10.667-4.781-10.667-10.667V266.667z M41.333,277.333h44V448h-44c-13.104-26.385-20-55.75-20-85.333
			C21.333,333.083,28.229,303.719,41.333,277.333z M399.125,119.125C359.833,83.5,309.417,64,256,64s-103.833,19.5-143.125,55.125
			l-14.831-14.831C139.788,66.155,195.134,42.667,256,42.667s116.212,23.488,157.956,61.628L399.125,119.125z M405.333,458.667
			c0,5.885-4.792,10.667-10.667,10.667S384,464.552,384,458.667v-192c0-5.885,4.792-10.667,10.667-10.667
			s10.667,4.781,10.667,10.667V458.667z M470.667,448h-44V277.333h44c13.104,26.385,20,55.75,20,85.333
			C490.667,392.25,483.771,421.615,470.667,448z"/>
	</g>
</g>
<g>
</g>
<g>
</g>
<g>
</g>
<g>
</g>
<g>
</g>
<g>
</g>
<g>
</g>
<g>
</g>
<g>
</g>
<g>
</g>
<g>
</g>
<g>
</g>
<g>
</g>
<g>
</g>
<g>
</g>
</svg>
